<?xml version="1.0" standalone="no"?>
<!DOCTYPE svg PUBLIC "-//W3C//DTD SVG 20010904//EN"
 "http://www.w3.org/TR/2001/REC-SVG-20010904/DTD/svg10.dtd">
<svg version="1.0" xmlns="http://www.w3.org/2000/svg"
 width="881.000000pt" height="443.000000pt" viewBox="0 0 881.000000 443.000000"
 preserveAspectRatio="xMidYMid meet">

<g transform="translate(0.000000,443.000000) scale(0.100000,-0.100000)"
fill="#000000" stroke="none">
<path d="M6030 4002 c-54 -27 -74 -72 -71 -159 l1 -33 65 0 c45 0 65 4 65 13
0 24 21 87 29 87 4 0 16 -39 26 -87 l19 -88 18 75 c26 105 27 108 38 90 5 -8
12 -37 16 -65 4 -27 9 -44 11 -37 3 9 39 12 134 12 l129 0 6 26 c9 36 -2 94
-24 124 -10 14 -35 33 -56 44 -49 24 -96 15 -145 -30 -21 -19 -42 -34 -45 -34
-4 0 -24 13 -44 29 -37 28 -90 51 -121 51 -9 0 -32 -8 -51 -18z"/>
<path d="M6110 3793 c0 -9 -20 -13 -65 -13 -38 0 -65 -4 -65 -10 0 -27 105
-112 230 -188 l36 -21 64 41 c86 54 151 109 173 147 l18 31 -113 0 -114 0 -12
-45 c-7 -25 -16 -45 -21 -45 -5 0 -13 24 -18 53 l-9 52 -11 -35 c-7 -19 -17
-54 -23 -78 -6 -23 -15 -40 -19 -38 -4 3 -14 34 -21 68 -13 62 -29 106 -30 81z"/>
<path d="M5547 3620 c-235 -40 -341 -139 -320 -298 6 -46 23 -68 23 -31 0 32
18 11 22 -25 4 -38 28 -47 28 -12 0 14 5 26 10 26 6 0 10 -13 10 -30 0 -19 7
-33 20 -40 18 -10 20 -8 20 20 0 16 4 30 9 30 11 0 21 -25 21 -51 0 -15 7 -19
30 -19 26 0 30 3 28 23 -2 12 2 24 7 27 6 3 11 -10 13 -27 3 -29 7 -33 33 -33
26 0 29 3 29 30 0 17 5 30 10 30 6 0 10 -13 10 -30 0 -28 3 -30 35 -30 33 0
35 2 35 35 0 19 5 35 10 35 6 0 10 -8 10 -17 0 -32 15 -45 43 -37 23 5 27 12
27 40 0 19 5 34 10 34 6 0 10 -12 10 -26 0 -40 34 -27 41 16 6 34 6 34 16 11
l10 -25 18 28 c23 35 31 117 15 155 -16 41 -53 51 -179 51 -144 0 -151 -3
-151 -52 0 -48 23 -48 28 0 4 40 21 41 29 2 4 -21 11 -30 24 -30 14 0 19 7 19
30 0 36 15 40 24 5 5 -18 13 -25 31 -25 19 0 23 5 22 24 -3 38 18 36 21 -1 3
-29 7 -33 31 -33 25 0 28 3 23 25 -2 15 0 25 7 25 6 0 11 -12 11 -27 0 -18 10
-35 27 -49 27 -22 28 -22 9 -43 -10 -11 -44 -31 -75 -43 -48 -19 -75 -22 -186
-22 -146 0 -224 20 -277 71 -31 30 -34 49 -13 77 8 11 15 31 15 45 1 24 2 25
14 8 12 -15 15 -15 26 -2 7 8 10 24 7 35 -7 26 10 26 18 0 10 -31 44 -9 38 25
-3 14 -1 25 5 25 6 0 12 -11 14 -24 3 -20 6 -22 26 -15 16 6 22 16 22 39 0 16
5 30 10 30 6 0 10 -11 10 -25 0 -18 5 -25 19 -25 37 0 51 12 51 41 0 36 17 39
22 4 2 -14 6 -25 11 -25 4 0 21 0 37 0 28 0 30 3 30 35 0 19 5 35 10 35 6 0
10 -16 10 -35 0 -34 1 -35 41 -35 39 0 40 1 37 30 -2 16 2 30 7 32 6 2 11 -11
13 -28 3 -32 20 -44 64 -44 14 0 16 6 12 30 -5 23 -3 30 10 30 12 0 16 -9 16
-34 0 -22 6 -36 16 -40 23 -9 24 -8 24 20 0 14 4 23 10 19 6 -3 10 -19 10 -35
0 -15 7 -30 15 -34 11 -4 15 1 15 19 0 14 5 25 10 25 6 0 10 -13 10 -29 0 -16
14 -53 32 -81 18 -28 37 -77 44 -108 l12 -57 1 52 c3 160 -68 262 -206 298
-61 16 -214 18 -296 5z"/>
<path d="M6640 3610 c-16 -30 4 -66 42 -79 67 -21 202 -41 278 -41 61 0 83 4
100 18 23 19 22 19 -76 25 -111 8 -227 36 -292 72 -40 23 -42 23 -52 5z"/>
<path d="M7151 3546 c-41 -8 -56 -16 -62 -34 -18 -48 -124 -55 -310 -21 l-116
22 -35 -26 c-54 -42 -140 -76 -204 -83 -49 -5 -69 -2 -119 18 -78 33 -107 39
-125 28 -12 -7 -12 -12 4 -29 26 -28 45 -89 46 -142 0 -25 3 -49 6 -52 4 -4
24 8 44 27 21 18 64 44 96 57 57 23 68 23 302 21 219 -3 251 -1 318 18 135 37
231 95 264 160 17 33 18 39 4 44 -21 8 -48 6 -113 -8z"/>
<path d="M7275 3505 c-29 -55 -137 -150 -207 -184 -88 -41 -165 -59 -309 -71
-174 -15 -225 -25 -299 -63 -62 -31 -64 -32 -34 -35 18 -2 83 9 145 23 63 14
168 32 234 40 156 19 222 36 320 85 58 28 97 56 138 99 59 61 69 91 44 124
-11 16 -14 14 -32 -18z"/>
<path d="M7324 3444 c-35 -97 -196 -189 -423 -239 -153 -35 -489 -85 -566 -85
-65 0 -76 -5 -53 -28 16 -16 43 -15 156 8 122 24 164 28 169 14 6 -19 -48 -35
-167 -50 -138 -18 -140 -18 -140 -43 0 -57 184 -28 335 54 66 36 96 46 170 56
256 33 472 148 521 275 9 25 14 47 11 51 -4 3 -10 -3 -13 -13z"/>
<path d="M4686 3381 c-3 -5 -3 -23 0 -40 8 -37 34 -42 34 -6 0 14 5 25 10 25
6 0 10 -9 10 -20 0 -13 10 -24 26 -30 33 -13 32 -13 36 13 4 28 21 25 28 -5 4
-16 14 -24 33 -26 21 -3 26 0 21 12 -4 11 -1 16 10 16 10 0 16 -9 16 -25 0
-14 4 -25 9 -25 5 0 16 -3 24 -6 10 -3 14 0 14 12 -1 9 4 19 11 21 8 3 12 -5
12 -25 0 -21 7 -32 24 -40 21 -9 25 -8 29 10 8 28 27 13 27 -22 0 -19 7 -33
19 -39 16 -9 18 -8 14 11 -4 15 -2 19 8 16 8 -2 15 -19 17 -36 2 -20 11 -36
24 -43 15 -8 19 -8 14 0 -4 6 -4 16 0 23 5 7 12 -3 18 -27 13 -44 33 -57 38
-23 4 21 5 21 13 -7 9 -33 23 -55 36 -55 5 0 6 6 3 14 -3 8 -1 17 5 21 7 4 11
-3 11 -17 0 -24 16 -48 32 -48 4 0 8 9 8 20 0 30 18 24 22 -7 4 -32 28 -44 28
-14 0 31 18 26 22 -6 2 -19 10 -29 31 -34 24 -7 27 -5 27 18 0 30 24 26 28 -4
3 -19 27 -33 60 -33 6 0 12 11 12 25 0 14 4 25 9 25 5 0 12 -11 15 -25 10 -41
86 -32 86 10 0 37 19 40 26 5 5 -24 11 -29 25 -25 11 3 28 8 39 11 14 4 20 14
20 35 0 18 4 28 10 24 6 -3 10 -15 10 -26 0 -23 11 -24 49 -4 23 11 27 19 24
40 -6 30 16 35 24 5 4 -16 9 -18 25 -9 15 8 18 17 14 35 -4 14 -2 24 4 24 5 0
10 -7 10 -15 0 -40 40 -2 41 39 0 26 2 28 8 11 7 -18 10 -15 28 20 11 22 23
56 27 75 l7 35 -20 -36 c-86 -157 -410 -243 -632 -169 -79 26 -181 90 -274
170 -87 75 -185 127 -272 145 -77 17 -159 19 -167 6z"/>
<path d="M4460 3273 c-14 -2 -48 -10 -76 -18 l-50 -14 0 -53 1 -53 53 3 c28 2
52 7 52 12 0 4 20 35 45 69 48 66 48 66 -25 54z"/>
<path d="M4554 3228 c-23 -24 -47 -53 -53 -65 -10 -20 -9 -23 11 -27 13 -2 45
-9 72 -14 48 -10 49 -9 80 26 17 19 44 43 59 52 l28 17 -48 21 c-92 38 -103
38 -149 -10z"/>
<path d="M4229 3174 c-26 -19 -54 -45 -63 -59 -16 -24 -15 -24 12 -15 15 5 46
14 70 20 41 10 42 12 42 50 0 22 -3 40 -7 40 -5 0 -29 -16 -54 -36z"/>
<path d="M3809 3177 c6 -14 24 -53 40 -86 l31 -60 0 -281 0 -280 25 0 25 0 0
284 0 284 35 77 c20 43 34 79 33 80 -2 2 -15 1 -29 -2 -18 -3 -32 -17 -46 -46
l-20 -42 -22 43 c-12 23 -28 42 -35 42 -8 0 -22 3 -30 6 -14 5 -15 2 -7 -19z"/>
<path d="M1912 3179 c-176 -30 -330 -174 -377 -354 -84 -322 200 -636 529
-585 239 37 406 230 406 470 0 229 -153 418 -379 466 -73 15 -102 16 -179 3z
m293 -69 c63 -31 152 -111 141 -128 -4 -7 -33 -1 -81 15 -63 21 -84 34 -128
80 -28 30 -54 59 -56 65 -6 17 57 1 124 -32z m-345 9 c0 -25 -73 -103 -143
-153 -85 -60 -87 -62 -104 -45 -27 27 99 158 192 200 39 17 55 17 55 -2z m241
-26 c67 -72 66 -67 20 -127 l-41 -55 -92 -3 -93 -3 -48 46 -49 46 44 61 c40
57 46 61 88 65 129 10 133 10 171 -30z m293 -166 c54 -91 75 -277 33 -285 -32
-6 -69 97 -77 213 -3 55 -5 103 -3 108 9 16 23 5 47 -36z m-776 -29 c20 -26
20 -150 0 -235 -11 -46 -24 -83 -29 -83 -52 0 -61 184 -14 297 15 35 26 41 43
21z m515 -73 c53 -84 53 -76 1 -191 -30 -66 -36 -74 -61 -74 -16 0 -58 -3 -94
-6 l-66 -7 -57 92 -56 91 45 78 45 77 58 6 c142 14 131 18 185 -66z m238 -137
l29 -66 -43 -81 c-45 -86 -52 -91 -147 -107 -35 -6 -35 -6 -63 59 l-28 65 36
86 c21 47 42 90 49 95 12 10 66 19 110 17 26 -1 32 -8 57 -68z m-612 36 c25
-5 40 -21 86 -97 l56 -90 -22 -65 -21 -64 -52 6 c-28 3 -61 6 -73 6 -17 0 -35
19 -72 73 l-49 74 20 81 20 82 38 0 c21 0 51 -3 69 -6z m559 -311 c6 -44 -140
-134 -240 -148 -48 -7 -48 -7 -48 22 0 25 10 34 72 73 64 40 176 82 203 76 6
-2 11 -12 13 -23z m-392 -56 c82 -51 81 -49 88 -74 7 -22 5 -23 -42 -23 -68 0
-166 32 -230 75 -43 29 -51 39 -43 53 8 15 20 17 88 12 68 -5 87 -11 139 -43z"/>
<path d="M4754 3164 c-18 -9 -42 -26 -54 -39 l-22 -23 84 -39 c70 -34 116 -63
195 -125 16 -13 3 33 -27 92 -24 47 -116 150 -134 150 -6 0 -25 -7 -42 -16z"/>
<path d="M2691 3096 c-29 -31 -47 -92 -56 -192 l-7 -81 54 -6 c29 -4 68 -7 86
-7 17 0 32 -4 32 -9 0 -13 -38 -21 -104 -21 l-59 0 7 -117 c3 -65 9 -148 13
-185 l6 -68 58 0 c33 0 59 -4 59 -9 0 -14 -27 -21 -76 -21 -42 0 -43 -1 -39
-27 6 -34 25 -239 25 -265 0 -15 8 -18 45 -18 25 0 45 -4 45 -10 0 -13 -34
-30 -60 -30 -21 0 -22 -3 -16 -57 27 -224 58 -389 81 -419 13 -18 14 -17 25
11 29 75 51 213 95 588 l6 47 -45 0 c-49 0 -76 7 -76 21 0 5 27 9 60 9 33 0
60 1 61 3 3 15 28 313 29 344 l0 43 -42 -6 c-48 -6 -100 6 -106 24 -3 9 16 12
65 12 37 0 74 4 81 8 16 11 18 291 1 356 -13 52 -70 123 -77 95 -3 -18 -31
-29 -75 -29 -34 0 -70 17 -62 31 12 18 -12 8 -34 -15z"/>
<path d="M4325 3078 c-2 -7 -9 -31 -15 -53 -7 -22 -47 -107 -90 -190 -43 -82
-85 -172 -94 -198 -16 -47 -15 -50 3 -80 33 -53 112 -124 175 -157 32 -17 60
-29 61 -28 2 2 -3 32 -11 68 -41 194 -21 446 51 633 6 14 1 17 -34 17 -25 0
-43 -5 -46 -12z"/>
<path d="M4446 3050 c-69 -174 -86 -497 -33 -658 l12 -37 84 -3 c54 -2 102 3
138 13 54 16 54 16 48 48 -4 18 -27 93 -51 167 -77 233 -90 336 -55 437 21 61
21 60 -69 70 l-57 6 -17 -43z"/>
<path d="M4187 3054 c-74 -24 -80 -28 -97 -67 -30 -68 -42 -167 -30 -244 6
-36 14 -71 17 -76 3 -5 15 12 27 39 11 27 47 98 80 159 57 106 102 215 88 215
-4 -1 -42 -12 -85 -26z"/>
<path d="M4640 3032 c-7 -15 -15 -61 -18 -103 -5 -93 11 -175 74 -361 24 -73
44 -140 44 -151 0 -16 5 -14 43 12 122 83 197 224 197 367 l0 63 -67 54 c-75
60 -156 108 -219 131 -41 14 -42 14 -54 -12z"/>
<path d="M1177 2983 c-16 -16 -4 -23 38 -23 33 0 45 4 45 15 0 11 -11 15 -38
15 -21 0 -42 -3 -45 -7z"/>
<path d="M3378 2869 c-21 -12 -25 -98 -6 -117 17 -17 239 -17 256 0 7 7 12 33
12 58 0 25 -5 51 -12 58 -15 15 -225 16 -250 1z"/>
<path d="M1180 2580 l0 -200 35 0 35 0 0 200 0 200 -35 0 -35 0 0 -200z"/>
<path d="M5427 2732 c-20 -21 -37 -44 -37 -53 0 -19 241 -259 261 -259 16 0
89 70 89 86 0 13 -252 264 -266 264 -5 0 -27 -17 -47 -38z"/>
<path d="M3346 2714 c-9 -8 -16 -17 -16 -19 0 -2 7 -11 16 -19 12 -13 41 -16
154 -16 113 0 142 3 154 16 9 8 16 17 16 19 0 2 -7 11 -16 19 -12 13 -41 16
-154 16 -113 0 -142 -3 -154 -16z"/>
<path d="M5292 2637 c-23 -23 -42 -49 -42 -58 0 -19 281 -299 301 -299 16 0
99 80 99 96 0 13 -292 304 -306 304 -5 0 -29 -19 -52 -43z"/>
<path d="M3370 2620 c-11 -11 -20 -25 -20 -31 0 -6 -14 -122 -31 -258 l-31
-246 -78 -190 c-43 -104 -83 -208 -89 -230 -7 -26 -11 -209 -11 -530 0 -457 2
-493 19 -531 18 -40 76 -94 99 -94 7 0 12 -4 12 -8 0 -5 -100 -12 -222 -16
-123 -3 -248 -9 -278 -12 l-55 -6 80 41 c168 83 265 238 265 421 -1 132 -43
232 -137 328 -126 128 -300 170 -479 117 -19 -6 -29 9 -94 137 -40 79 -103
202 -141 274 -56 106 -69 139 -69 177 0 35 -6 53 -27 78 -27 31 -133 89 -164
89 -14 0 -48 -57 -38 -63 2 -1 25 -12 51 -24 83 -39 96 -89 38 -143 l-28 -26
25 -28 24 -28 36 25 37 26 61 -117 62 -117 -24 -32 c-13 -17 -68 -117 -122
-222 -91 -175 -180 -322 -230 -379 -19 -22 -21 -22 -51 -7 -26 13 -29 20 -24
43 9 37 20 49 59 62 38 13 50 33 35 61 -14 25 -35 24 -101 -3 -71 -28 -83 -40
-75 -73 6 -23 11 -27 36 -23 23 3 30 1 30 -11 0 -27 -13 -38 -52 -44 l-38 -6
-142 194 c-109 147 -149 194 -168 197 -14 3 -2 5 25 5 53 0 117 26 148 61 18
19 18 20 -5 36 -13 10 -42 16 -73 16 -27 0 -112 12 -188 27 l-137 27 -22 -22
c-30 -29 -39 -150 -14 -171 16 -13 80 -9 181 12 11 2 14 2 8 0 -7 -2 -38 -54
-69 -114 -31 -60 -60 -109 -63 -109 -3 0 -40 7 -81 16 -285 60 -561 -164 -560
-455 1 -136 42 -235 139 -332 76 -75 147 -114 247 -133 53 -10 63 -15 44 -19
-394 -96 -514 -127 -524 -137 -15 -16 11 -12 404 65 891 176 1508 247 2395
276 863 28 1584 -14 2590 -151 862 -118 1058 -135 1545 -134 303 0 414 4 520
17 213 27 379 57 455 83 l70 24 -50 -5 c-42 -3 -314 -44 -407 -60 -36 -6 -35
6 1 27 37 20 54 73 40 123 -10 35 -54 75 -83 75 -9 0 -16 7 -16 15 0 10 10 15
31 15 l31 0 -4 70 c-3 57 -9 77 -33 112 -35 50 -99 85 -163 90 l-42 3 -35 -75
c-30 -66 -38 -75 -63 -78 -17 -2 -38 5 -53 17 l-24 19 37 76 c21 41 34 78 29
80 -5 3 -32 -21 -60 -54 -29 -33 -58 -60 -66 -60 -16 0 -75 48 -75 61 0 4 27
37 59 71 54 58 58 65 45 83 -8 11 -20 37 -26 57 l-11 38 -117 0 c-139 0 -150
6 -150 88 0 73 16 82 147 82 l103 0 0 47 0 46 -107 -6 c-58 -4 -138 -7 -177
-7 l-71 0 3 -137 c3 -111 0 -163 -18 -263 -12 -69 -25 -182 -27 -252 l-6 -128
37 0 c45 0 47 -17 4 -35 -73 -30 -103 -95 -73 -158 9 -20 23 -38 31 -41 37
-14 5 -20 -78 -14 -51 3 -103 7 -116 7 l-23 1 22 30 c20 26 31 103 110 752 48
398 90 740 93 761 6 36 5 37 -24 37 -40 0 -38 17 7 69 35 41 38 43 80 37 23
-3 66 -17 95 -32 136 -69 196 -92 202 -78 7 19 -272 154 -319 154 -26 0 -45
-9 -75 -36 -22 -20 -40 -44 -40 -53 0 -10 -6 -25 -12 -34 -12 -16 -29 -15
-261 14 -137 17 -250 29 -252 27 -2 -2 -45 -346 -96 -765 l-93 -762 22 -31 23
-30 -25 0 c-23 0 -210 23 -282 35 -30 5 -31 7 -33 62 -1 31 -4 59 -6 63 -3 4
33 45 79 91 94 95 137 172 163 292 40 189 -24 397 -163 532 -24 23 -41 45 -38
48 3 3 49 -24 101 -60 108 -75 117 -73 109 13 -5 62 -26 107 -74 156 -30 32
-33 39 -22 53 17 21 4 32 -20 17 -22 -14 -25 -7 -36 83 -13 121 -32 140 -176
176 -58 14 -130 22 -240 26 l-157 6 -29 -29 c-15 -16 -41 -62 -56 -101 -27
-72 -46 -99 -46 -69 0 9 -7 16 -16 16 -11 0 -15 -6 -11 -20 4 -14 -4 -25 -26
-39 -52 -32 -105 -93 -122 -140 -16 -46 -20 -81 -8 -81 3 0 50 16 104 36 54
20 104 34 110 32 7 -2 -14 -19 -47 -38 -32 -18 -86 -60 -119 -94 -199 -202
-221 -517 -54 -751 l29 -41 -21 -62 c-17 -50 -25 -62 -42 -62 -12 0 -114 9
-227 20 -113 11 -211 20 -218 20 -9 0 -5 11 11 29 29 35 30 46 52 486 8 165
17 333 21 373 5 59 3 72 -9 72 -10 0 -13 -8 -10 -25 3 -13 -3 -176 -12 -362
-18 -364 -22 -383 -74 -401 -36 -13 -531 12 -561 28 -52 28 -52 27 -30 420 19
327 21 433 6 339 -10 -67 -46 -848 -39 -866 3 -10 15 -28 26 -40 l20 -22 -134
6 c-74 3 -135 7 -136 8 -2 1 14 13 35 26 21 14 47 43 60 69 22 44 22 46 22
533 0 411 -2 499 -16 549 -17 66 -72 209 -127 330 -32 71 -38 97 -66 321 -17
135 -31 250 -31 256 0 6 -9 20 -20 31 -18 18 -33 20 -130 20 -97 0 -112 -2
-130 -20z m248 -7 c17 -16 24 -53 51 -276 25 -211 35 -266 55 -305 45 -89 135
-327 146 -387 6 -33 10 -85 8 -115 l-3 -55 -375 0 -375 0 -3 63 c-4 85 13 145
102 359 l76 182 31 258 c27 223 34 260 51 276 16 14 39 17 118 17 79 0 102 -3
118 -17z m2144 -789 c118 -19 187 -44 210 -75 13 -17 21 -50 25 -102 l6 -76
-44 16 c-54 18 -130 13 -183 -12 -45 -22 -51 -14 79 -103 87 -60 94 -78 14
-34 -30 17 -81 38 -114 48 -33 10 -61 19 -63 20 -2 1 5 18 14 37 12 25 25 37
42 39 14 2 27 8 29 15 5 13 -65 53 -92 53 -19 0 -20 -36 0 -44 13 -5 12 -12
-7 -51 l-22 -45 -71 0 c-39 0 -97 -7 -128 -15 -116 -30 -101 -12 28 34 124 44
124 43 81 76 -48 37 -100 54 -165 55 -46 0 -52 2 -46 18 4 9 15 40 26 68 23
60 45 83 91 94 41 10 176 3 290 -16z m932 -19 c109 -13 200 -26 202 -28 2 -2
-25 -71 -61 -153 -36 -82 -63 -153 -61 -159 2 -7 -35 -8 -108 -3 -61 3 -150 7
-198 7 -48 1 -89 4 -91 9 -5 7 31 325 38 350 3 8 17 11 42 7 21 -3 127 -17
237 -30z m296 -39 c0 0 -9 -71 -20 -156 -11 -85 -20 -156 -20 -158 0 -1 -35
-1 -78 0 l-78 3 51 115 c28 63 57 131 65 150 19 50 27 58 55 52 14 -2 25 -5
25 -6z m-4706 -322 c25 -49 46 -95 46 -101 0 -7 -9 -14 -19 -18 -11 -3 -44
-30 -75 -60 -66 -65 -122 -174 -137 -264 -37 -234 114 -466 344 -525 l52 -13
-40 -6 c-22 -4 -78 -9 -125 -12 -257 -19 -752 -82 -1059 -135 -63 -11 -116
-18 -118 -16 -2 2 15 15 39 29 125 74 218 245 218 401 0 50 1 50 87 61 51 7
52 6 88 -34 21 -23 44 -41 52 -41 11 0 12 -8 7 -37 -4 -21 -8 -39 -9 -41 -2
-2 -19 1 -39 6 -29 8 -39 7 -51 -5 -35 -34 -16 -56 73 -83 59 -17 76 -19 88
-9 23 19 13 62 -16 69 -27 6 -35 28 -26 66 5 19 13 24 40 24 74 0 136 76 136
166 0 38 5 55 20 69 28 26 105 148 185 295 150 274 177 322 185 313 4 -4 28
-49 54 -99z m3441 1 c89 -24 173 -73 242 -143 256 -258 178 -696 -151 -851
-353 -166 -756 89 -756 478 0 152 46 266 150 372 103 105 225 158 370 158 47
1 112 -6 145 -14z m1212 -42 c-3 -10 -5 -4 -5 12 0 17 2 24 5 18 2 -7 2 -21 0
-30z m-3275 0 c61 -28 136 -98 159 -148 22 -48 24 -133 5 -180 -24 -56 -91
-120 -159 -151 -56 -26 -72 -29 -167 -29 -95 0 -111 3 -167 29 -68 31 -135 95
-159 151 -18 45 -18 126 1 173 29 69 114 141 198 168 65 21 230 13 289 -13z
m2715 -5 c-3 -7 -5 -2 -5 12 0 14 2 19 5 13 2 -7 2 -19 0 -25z m-4954 -236
l145 -199 -17 -51 c-18 -58 -22 -60 -100 -68 l-56 -6 -30 68 c-21 51 -47 86
-95 135 -36 36 -76 72 -90 81 -23 14 -23 16 -9 44 81 159 100 194 103 194 3 0
70 -89 149 -198z m4944 141 c-3 -10 -5 -2 -5 17 0 19 2 27 5 18 2 -10 2 -26 0
-35z m-3848 -92 c6 -46 9 -86 7 -89 -3 -2 -23 33 -46 78 -23 45 -38 86 -33 90
11 11 47 18 54 11 3 -3 11 -44 18 -90z m114 93 c12 -4 9 -26 -18 -135 -18 -72
-35 -133 -38 -136 -11 -11 -25 36 -36 127 -7 52 -14 107 -17 123 -6 27 -5 27
44 27 28 0 57 -3 65 -6z m108 -39 l50 -26 -29 -37 c-15 -20 -59 -77 -96 -125
-38 -48 -70 -86 -73 -84 -2 3 13 70 33 151 25 102 41 146 51 146 7 0 36 -11
64 -25z m3616 -27 c-3 -7 -5 -2 -5 12 0 14 2 19 5 13 2 -7 2 -19 0 -25z m560
10 c-3 -8 -6 -5 -6 6 -1 11 2 17 5 13 3 -3 4 -12 1 -19z m-4471 -139 c40 -68
71 -125 69 -127 -5 -5 -245 181 -245 189 0 4 18 23 41 44 28 25 44 34 51 27 6
-6 43 -66 84 -133z m403 74 c17 -21 31 -42 31 -48 0 -5 -37 -31 -83 -57 -45
-26 -106 -62 -136 -80 -31 -18 -50 -25 -45 -16 26 45 181 237 191 238 6 0 25
-17 42 -37z m3498 -25 c-3 -7 -5 -2 -5 12 0 14 2 19 5 13 2 -7 2 -19 0 -25z
m560 0 c-3 -8 -6 -5 -6 6 -1 11 2 17 5 13 3 -3 4 -12 1 -19z m-4520 -104 c68
-53 123 -98 121 -99 -4 -5 -298 72 -305 79 -11 11 37 116 53 116 3 0 62 -43
131 -96z m4510 29 c-3 -10 -5 -4 -5 12 0 17 2 24 5 18 2 -7 2 -21 0 -30z
m-3981 -10 c9 -20 16 -48 17 -62 2 -24 1 -25 -155 -46 -87 -11 -158 -18 -158
-15 1 8 253 158 268 159 7 1 20 -16 28 -36z m-2036 25 c0 -2 9 -70 20 -152 18
-133 19 -169 6 -155 -16 16 -157 261 -153 265 14 14 127 51 127 42z m140 -15
c-1 -59 -77 -288 -86 -258 -5 16 -34 238 -34 257 0 15 9 18 60 18 51 0 60 -3
60 -17z m45 -3 c6 -10 -29 -85 -45 -95 -5 -3 -8 0 -5 7 2 7 9 32 15 56 10 41
23 52 35 32z m5272 -32 c-3 -8 -6 -5 -6 6 -1 11 2 17 5 13 3 -3 4 -12 1 -19z
m-5196 2 c10 -6 19 -15 19 -21 0 -12 -155 -215 -172 -225 -6 -4 -9 -3 -7 2 11
27 133 254 137 254 2 0 12 -5 23 -10z m-321 -149 c44 -74 78 -136 77 -137 -2
-2 -132 95 -232 174 l-30 24 43 40 c24 21 47 38 52 36 5 -2 46 -63 90 -137z
m437 25 c-6 -17 -190 -125 -214 -126 -13 0 -23 2 -23 5 0 3 37 54 82 112 l82
106 38 -43 c21 -24 37 -48 35 -54z m5070 57 c-3 -10 -5 -4 -5 12 0 17 2 24 5
18 2 -7 2 -21 0 -30z m-3971 -9 c79 -20 143 -39 140 -41 -4 -4 -277 -43 -303
-43 -14 0 -18 75 -7 104 8 21 2 22 170 -20z m-656 -8 c0 -33 -16 -42 -30 -16
-12 23 -6 40 16 40 8 0 14 -10 14 -24z m1240 -56 c0 -47 -3 -60 -15 -60 -33 0
-309 75 -290 78 26 6 265 39 288 41 14 1 17 -8 17 -59z m-1180 46 c0 -3 -4 -8
-10 -11 -5 -3 -10 -1 -10 4 0 6 5 11 10 11 6 0 10 -2 10 -4z m4545 -158 c-8
-84 -18 -198 -22 -254 -8 -137 -12 -134 229 -163 101 -12 197 -21 215 -21 63
0 69 22 127 420 10 67 14 82 15 51 1 -63 -47 -449 -60 -473 -24 -46 -57 -48
-293 -18 -300 37 -283 12 -241 344 30 239 36 278 42 272 2 -2 -3 -73 -12 -158z
m572 115 c-3 -10 -5 -2 -5 17 0 19 2 27 5 18 2 -10 2 -26 0 -35z m-6116 -70
c71 -54 127 -99 125 -101 -5 -5 -300 70 -310 79 -14 13 31 119 51 119 4 0 64
-44 134 -97z m849 37 c-20 -12 -45 12 -36 36 6 16 9 16 29 -4 19 -19 20 -24 7
-32z m-308 -52 c-9 -9 -189 -22 -180 -13 3 3 39 26 80 50 l73 43 17 -36 c9
-20 14 -40 10 -44z m1193 70 c-11 -7 -75 -44 -143 -84 l-122 -73 -14 27 c-14
27 -32 101 -25 103 35 7 263 37 289 38 31 0 33 -1 15 -11z m285 -33 c80 -20
147 -38 149 -40 6 -7 -48 -115 -57 -115 -10 0 -224 160 -252 188 -13 13 -13
14 0 10 8 -3 80 -22 160 -43z m-267 13 c-6 -7 -49 -64 -97 -125 -48 -62 -91
-113 -95 -113 -10 0 -69 62 -73 77 -2 7 56 48 127 92 129 79 156 92 138 69z
m-698 -28 c0 -18 -6 -26 -21 -28 -26 -4 -40 24 -23 45 18 21 44 11 44 -17z
m690 -117 c-50 -191 -40 -177 -101 -149 -28 13 -54 28 -57 33 -6 10 184 266
191 258 2 -2 -13 -65 -33 -142z m234 50 l125 -97 -43 -38 c-24 -21 -47 -38
-51 -38 -4 0 -44 61 -88 135 -45 74 -78 135 -74 135 4 0 63 -44 131 -97z m-69
-50 c61 -102 78 -138 68 -145 -17 -10 -110 -39 -115 -35 -3 3 -43 290 -43 308
0 21 13 2 90 -128z m-87 -19 c23 -179 27 -164 -37 -164 -30 0 -57 4 -61 9 -8
13 66 304 75 294 4 -4 14 -67 23 -139z m1292 26 c-1 -120 -12 -151 -72 -197
l-36 -28 -241 -3 c-133 -2 -255 0 -273 3 -43 8 -92 50 -114 100 -14 29 -19 64
-19 131 0 50 3 94 7 97 4 4 173 6 377 5 l371 -3 0 -105z m-2255 60 c0 -5 -10
-10 -22 -10 -19 0 -20 2 -8 10 19 13 30 13 30 0z m-894 -36 c80 -20 142 -40
137 -44 -8 -7 -249 -40 -291 -40 -19 0 -22 5 -22 44 0 49 7 76 21 76 5 0 75
-16 155 -36z m1051 20 c8 -21 -19 -46 -40 -38 -17 6 -23 35 -10 47 12 13 44 7
50 -9z m-107 -1 c0 -20 -13 -53 -20 -53 -14 0 -21 32 -9 46 12 15 29 19 29 7z
m-347 -87 c-1 -32 -4 -60 -5 -62 -4 -4 -308 72 -314 79 -2 2 57 12 133 21 76
10 143 19 148 21 32 11 40 -1 38 -59z m-448 -5 c-13 -11 -265 -161 -271 -161
-9 0 -44 84 -44 107 0 18 7 23 43 28 23 3 85 12 137 19 117 17 147 19 135 7z
m434 -77 c6 -5 -27 -86 -44 -108 -13 -17 -22 -12 -144 80 -72 55 -130 101
-131 105 0 5 310 -70 319 -77z m-513 -68 c-53 -69 -101 -126 -106 -126 -14 0
-86 93 -75 97 6 2 69 38 140 82 72 43 132 77 134 75 2 -2 -40 -59 -93 -128z
m82 -36 c-28 -112 -45 -160 -55 -160 -28 0 -114 50 -106 63 10 17 195 257 198
257 1 0 -15 -72 -37 -160z m245 56 l117 -90 -32 -34 c-61 -63 -58 -65 -144 80
-44 72 -81 136 -83 141 -5 14 12 2 142 -97z m-163 -71 c11 -82 20 -153 20
-157 0 -10 -101 -10 -116 0 -8 5 0 54 29 166 23 88 42 155 44 150 1 -5 11 -76
23 -159z m44 97 c22 -37 59 -100 83 -140 l43 -73 -42 -19 c-50 -23 -87 -25
-93 -7 -8 26 -41 307 -36 307 3 0 24 -31 45 -68z m4238 -128 c17 -14 53 -36
79 -50 27 -13 49 -26 49 -27 0 -5 -224 24 -229 29 -5 4 59 74 67 74 2 0 18
-11 34 -26z m2524 -18 c6 -17 -45 -86 -62 -86 -7 0 -28 16 -47 35 -30 30 -42
35 -80 35 -48 0 -91 -25 -102 -60 -9 -28 -40 -25 -60 6 -43 65 -148 65 -187
-2 -11 -19 -27 -34 -36 -34 -23 1 -64 67 -57 91 6 17 22 19 263 22 141 1 281
3 310 5 38 1 54 -2 58 -12z m-1868 -130 c-8 -7 -238 28 -238 36 0 4 12 8 28 8
15 0 56 11 92 24 l65 22 28 -44 c16 -24 27 -45 25 -46z m1966 51 c28 -20 18
-69 -16 -81 -22 -8 -32 -6 -48 9 -24 22 -25 42 -3 67 19 21 42 23 67 5z m-249
-17 c15 -17 16 -24 7 -45 -15 -32 -37 -41 -68 -27 -17 8 -24 20 -24 40 0 52
50 71 85 32z m-504 -22 c14 -26 2 -57 -27 -70 -49 -23 -88 54 -43 85 25 18 56
11 70 -15z m252 11 c29 -47 -32 -101 -73 -64 -23 20 -25 37 -9 66 13 24 66 23
82 -2z m164 -118 c12 -6 38 -11 59 -11 30 0 44 7 75 40 21 22 42 40 48 40 5 0
25 -16 44 -35 19 -19 43 -35 54 -36 11 0 7 -4 -12 -11 -16 -5 -178 -12 -360
-15 l-330 -5 27 24 c14 13 31 33 37 46 16 31 31 28 64 -13 18 -22 39 -36 62
-41 59 -11 86 2 139 66 l19 23 26 -30 c14 -17 36 -36 48 -42z"/>
<path d="M3413 2203 c15 -2 37 -2 50 0 12 2 0 4 -28 4 -27 0 -38 -2 -22 -4z"/>
<path d="M3423 2163 c9 -2 23 -2 30 0 6 3 -1 5 -18 5 -16 0 -22 -2 -12 -5z"/>
<path d="M3423 2073 c9 -2 23 -2 30 0 6 3 -1 5 -18 5 -16 0 -22 -2 -12 -5z"/>
<path d="M5500 1429 c-30 -5 -92 -27 -136 -49 -193 -95 -306 -305 -276 -515
29 -198 166 -359 355 -416 91 -28 244 -23 329 10 124 48 241 165 289 289 33
85 38 238 11 329 -74 242 -322 394 -572 352z m203 -24 c65 -17 127 -46 175
-82 l33 -25 -22 -24 c-12 -13 -18 -24 -12 -24 6 0 16 7 23 15 20 24 34 18 72
-32 54 -73 73 -114 56 -124 -7 -5 -19 -9 -25 -9 -7 0 -13 -5 -13 -10 0 -6 14
-9 32 -8 31 3 33 1 44 -47 17 -69 16 -139 -1 -213 -15 -64 -59 -162 -73 -162
-4 0 -17 7 -29 15 -12 8 -24 11 -27 6 -3 -5 6 -17 20 -26 l26 -17 -51 -52
c-28 -28 -64 -59 -80 -69 -27 -16 -28 -16 -39 8 -12 26 -38 36 -28 10 3 -8 9
-22 12 -30 15 -37 -165 -75 -276 -58 -67 11 -189 61 -234 97 -19 16 -19 16 2
39 29 31 15 44 -16 15 l-24 -23 -32 38 c-44 53 -84 129 -70 134 6 2 20 10 30
19 18 13 16 14 -17 8 l-36 -6 -13 61 c-24 114 5 285 59 353 18 21 19 21 45 5
32 -21 34 -12 4 20 l-22 23 30 31 c32 34 123 103 128 98 2 -2 9 -14 15 -26 6
-13 16 -23 22 -23 5 0 3 14 -6 30 -15 30 -15 30 12 42 96 38 213 47 306 23z"/>
<path d="M5602 1373 c-5 -10 -6 -29 -2 -43 6 -21 7 -19 11 18 5 47 4 50 -9 25z"/>
<path d="M5687 1359 c4 -13 8 -18 11 -10 2 7 -1 18 -6 23 -8 8 -9 4 -5 -13z"/>
<path d="M5626 1282 c-3 -5 1 -9 9 -9 8 0 12 4 9 9 -3 4 -7 8 -9 8 -2 0 -6 -4
-9 -8z"/>
<path d="M5611 1226 c-7 -8 -10 -20 -6 -26 4 -6 1 -58 -6 -116 -10 -85 -16
-107 -31 -115 -11 -6 -23 -20 -27 -31 -5 -14 -31 -30 -81 -49 -40 -16 -76 -26
-80 -24 -4 3 -15 -4 -25 -15 -18 -19 -17 -20 8 -20 14 0 28 4 31 8 3 5 37 21
76 36 60 24 76 27 96 17 35 -16 64 1 64 38 0 16 -6 34 -13 40 -11 9 -11 29 0
118 8 59 18 110 24 113 5 4 4 13 -4 24 -12 16 -14 16 -26 2z"/>
<path d="M5199 1023 c7 -14 7 -24 1 -28 -5 -3 -6 -13 -3 -21 5 -13 7 -13 14
-2 13 19 11 32 -7 54 -15 18 -15 18 -5 -3z"/>
<path d="M6020 895 c-7 -9 -8 -15 -2 -15 5 0 12 7 16 15 3 8 4 15 2 15 -2 0
-9 -7 -16 -15z"/>
<path d="M6031 854 c0 -11 3 -14 6 -6 3 7 2 16 -1 19 -3 4 -6 -2 -5 -13z"/>
<path d="M5960 846 c0 -2 8 -10 18 -17 15 -13 16 -12 3 4 -13 16 -21 21 -21
13z"/>
<path d="M5500 521 c0 -17 4 -32 8 -35 4 -2 6 11 4 30 -5 42 -12 45 -12 5z"/>
<path d="M8165 2620 c-30 -20 -39 -40 -20 -47 16 -5 77 36 73 49 -7 19 -21 19
-53 -2z"/>
<path d="M8193 2567 c-23 -12 -22 -13 42 -131 35 -65 74 -129 87 -143 31 -33
62 -27 66 13 3 26 -13 55 -78 153 -45 67 -85 121 -89 121 -3 -1 -16 -6 -28
-13z"/>
<path d="M3871 2431 c-17 -31 -13 -39 29 -61 21 -11 41 -20 43 -20 1 0 0 21
-3 48 -4 42 -8 47 -32 50 -18 2 -30 -3 -37 -17z"/>
<path d="M3860 2352 c0 -11 -2 -27 -5 -34 -4 -9 11 -22 40 -36 25 -12 48 -22
51 -22 3 0 4 15 2 32 -2 27 -11 37 -45 56 -42 23 -43 23 -43 4z"/>
<path d="M3850 2247 c0 -30 5 -36 50 -57 27 -13 53 -21 56 -17 3 3 3 19 0 34
-5 22 -18 35 -52 51 -24 12 -47 22 -49 22 -3 0 -5 -15 -5 -33z"/>
<path d="M1175 2190 c3 -5 24 -10 46 -10 21 0 39 5 39 10 0 6 -21 10 -46 10
-27 0 -43 -4 -39 -10z"/>
<path d="M3850 2160 c0 -26 7 -33 50 -55 27 -14 52 -25 55 -25 3 0 5 13 5 30
0 26 -7 33 -50 55 -27 14 -52 25 -55 25 -3 0 -5 -13 -5 -30z"/>
<path d="M4780 2134 c-23 -21 -40 -45 -40 -58 0 -25 276 -306 301 -306 16 0
99 80 99 96 0 14 -293 304 -308 304 -6 0 -30 -16 -52 -36z"/>
<path d="M3840 2056 c0 -65 13 -78 72 -74 41 3 43 4 46 38 3 34 1 37 -53 63
-30 15 -58 27 -60 27 -3 0 -5 -24 -5 -54z"/>
<path d="M4680 1985 l-45 -45 138 -137 137 -138 45 45 c25 24 45 49 45 55 0
13 -252 265 -266 265 -5 0 -30 -20 -54 -45z"/>
<path d="M7743 1994 c-6 -17 33 -64 53 -64 26 0 25 23 -2 51 -31 33 -42 36
-51 13z"/>
<path d="M7612 1854 c-91 -86 -112 -111 -112 -134 0 -68 59 -42 155 67 38 43
79 90 92 104 l23 25 -23 22 -23 22 -112 -106z"/>
<path d="M868 1876 c-4 -39 0 -56 13 -56 5 0 9 20 9 45 0 53 -16 61 -22 11z"/>
<path d="M1650 1865 c0 -33 4 -45 13 -42 7 2 12 20 12 42 0 22 -5 40 -12 43
-9 2 -13 -10 -13 -43z"/>
<path d="M1070 1865 l0 -35 200 0 200 0 0 35 0 35 -200 0 -200 0 0 -35z"/>
<path d="M4148 1443 c17 -2 47 -2 65 0 17 2 3 4 -33 4 -36 0 -50 -2 -32 -4z"/>
<path d="M7843 1439 c-101 -9 -235 -45 -268 -71 -30 -24 -45 -74 -45 -155 0
-85 17 -157 43 -181 12 -11 42 -26 67 -32 25 -7 72 -27 105 -45 78 -43 111
-49 163 -31 24 9 95 22 158 31 184 24 229 62 229 190 -1 55 -7 83 -29 130 -34
74 -57 100 -119 131 -41 21 -161 46 -207 42 -8 0 -52 -4 -97 -9z m159 -51 l1
-43 4 43 4 44 37 -7 c122 -22 202 -94 202 -182 0 -27 3 -34 10 -23 11 17 15 8
24 -52 6 -46 -7 -49 -25 -6 -19 45 -131 140 -147 124 -3 -4 0 -6 6 -6 7 0 13
-12 13 -27 1 -17 3 -21 6 -10 2 9 8 17 13 17 21 0 81 -65 106 -115 24 -46 26
-57 15 -82 -11 -27 -66 -73 -88 -73 -23 0 -23 33 -1 59 22 25 22 25 1 7 -12
-10 -26 -15 -32 -11 -6 3 -8 0 -5 -8 8 -23 -54 -64 -110 -73 l-50 -7 36 44
c19 24 38 51 42 59 8 15 -14 -9 -40 -44 -18 -26 -27 -15 -14 18 5 15 10 47 10
72 0 48 1 49 33 33 21 -10 21 -9 3 5 -10 8 -22 17 -25 18 -13 6 -59 111 -54
124 3 8 22 15 47 16 l41 1 -37 4 c-30 3 -36 8 -31 21 5 16 4 16 -8 1 -23 -26
-46 -29 -64 -9 -10 11 -26 22 -36 25 -11 4 -19 13 -19 21 0 8 -5 12 -11 9 -5
-4 -22 -2 -37 3 -15 6 -40 13 -56 17 -17 3 -25 10 -20 15 11 11 62 16 172 18
l82 2 2 -42z m-357 -67 c8 -26 -4 -51 -26 -51 -15 0 -19 7 -19 35 0 28 4 35
19 35 11 0 22 -8 26 -19z m125 -22 c0 -22 -22 -49 -40 -49 -28 0 -34 19 -14
41 18 20 54 26 54 8z m92 -76 c22 -20 23 -36 3 -53 -13 -10 -19 -10 -35 5 -23
21 -25 36 -8 53 15 15 18 15 40 -5z m-181 -23 c21 -12 25 -35 8 -46 -17 -10
-59 17 -59 38 0 20 21 23 51 8z m124 -120 c21 -34 -34 -75 -63 -46 -14 14 -14
17 3 36 19 21 50 27 60 10z m355 -84 c0 -14 -29 -31 -38 -21 -6 6 18 35 29 35
5 0 9 -6 9 -14z"/>
<path d="M8143 1340 c0 -25 2 -35 4 -22 2 12 2 32 0 45 -2 12 -4 2 -4 -23z"/>
<path d="M8078 1293 c7 -3 16 -2 19 1 4 3 -2 6 -13 5 -11 0 -14 -3 -6 -6z"/>
<path d="M8121 1204 c0 -11 3 -14 6 -6 3 7 2 16 -1 19 -3 4 -6 -2 -5 -13z"/>
<path d="M8106 1165 c-9 -26 -7 -32 5 -12 6 10 9 21 6 23 -2 3 -7 -2 -11 -11z"/>
<path d="M8217 1115 c-9 -19 -15 -35 -12 -35 7 0 37 61 33 66 -3 2 -12 -12
-21 -31z"/>
<path d="M8083 1117 c0 -7 11 -18 23 -24 23 -11 23 -10 6 13 -19 26 -29 30
-29 11z"/>
<path d="M4338 1433 c18 -2 45 -2 60 0 15 2 0 4 -33 4 -33 0 -45 -2 -27 -4z"/>
<path d="M4528 1423 c17 -2 47 -2 65 0 17 2 3 4 -33 4 -36 0 -50 -2 -32 -4z"/>
<path d="M4193 1313 c9 -2 25 -2 35 0 9 3 1 5 -18 5 -19 0 -27 -2 -17 -5z"/>
<path d="M4153 1273 c15 -2 39 -2 55 0 15 2 2 4 -28 4 -30 0 -43 -2 -27 -4z"/>
<path d="M4193 1223 c9 -2 23 -2 30 0 6 3 -1 5 -18 5 -16 0 -22 -2 -12 -5z"/>
<path d="M4143 1183 c15 -2 39 -2 55 0 15 2 2 4 -28 4 -30 0 -43 -2 -27 -4z"/>
</g>
</svg>
